<?xml version="1.0" encoding="UTF-8" standalone="no"?>
<!DOCTYPE svg PUBLIC "-//W3C//DTD SVG 1.1//EN" "http://www.w3.org/Graphics/SVG/1.1/DTD/svg11.dtd">
<svg width="100%" height="100%" viewBox="0 0 100 100" version="1.1" xmlns="http://www.w3.org/2000/svg" xmlns:xlink="http://www.w3.org/1999/xlink" xml:space="preserve" xmlns:serif="http://www.serif.com/" style="fill-rule:evenodd;clip-rule:evenodd;stroke-linejoin:round;stroke-miterlimit:2;">
    <g transform="matrix(-6.60965e-17,1,1,6.61098e-17,5.9952e-15,-1.42109e-14)">
        <path d="M21.667,73.809L21.667,33.867L49.997,17.679L78.334,33.867L78.334,66.13L49.997,82.321L35,73.75L35,41.604L49.997,33.034L65,41.604L65,58.392L49.997,66.963L48.334,66.013L48.334,49.343L56.716,44.551L49.997,40.713L41.667,45.476L41.667,69.88L49.997,74.642L71.667,62.259L71.667,37.737L49.997,25.358L28.334,37.737L28.334,77.617L49.997,90L85,70L85,30L49.997,10L15,30L15,70L21.667,73.809Z" style="fill:white;fill-rule:nonzero;"/>
    </g>
</svg>
