<?xml version="1.0" encoding="UTF-8" standalone="no"?>
<!DOCTYPE svg PUBLIC "-//W3C//DTD SVG 1.1//EN" "http://www.w3.org/Graphics/SVG/1.1/DTD/svg11.dtd">
<svg width="100%" height="100%" viewBox="0 0 250 250" version="1.1" xmlns="http://www.w3.org/2000/svg" xmlns:xlink="http://www.w3.org/1999/xlink" xml:space="preserve" xmlns:serif="http://www.serif.com/" style="fill-rule:evenodd;clip-rule:evenodd;stroke-linejoin:round;stroke-miterlimit:2;">
    <path d="M81.406,0.156C80.762,0.273 80.098,0.391 79.531,0.781C77.246,2.324 76.738,5.527 78.281,7.813L89.063,23.906C72.402,32.734 59.98,47.402 55.938,65L194.063,65C190.02,47.402 177.598,32.734 160.938,23.906L171.719,7.813C173.262,5.527 172.754,2.324 170.469,0.781C168.164,-0.762 164.98,-0.098 163.438,2.188L151.563,19.688C143.32,16.68 134.375,15 125,15C115.625,15 106.68,16.68 98.438,19.688L86.563,2.188C85.41,0.469 83.32,-0.215 81.406,0.156ZM97.5,40C101.641,40 105,43.359 105,47.5C105,51.66 101.641,55 97.5,55C93.34,55 90,51.66 90,47.5C90,43.359 93.34,40 97.5,40ZM152.5,40C156.66,40 160,43.359 160,47.5C160,51.66 156.66,55 152.5,55C148.359,55 145,51.66 145,47.5C145,43.359 148.359,40 152.5,40ZM40,75C31.719,75 25,81.719 25,90L25,160C25,168.281 31.719,175 40,175C41.758,175 43.438,174.629 45,174.063L45,75.938C43.438,75.371 41.758,75 40,75ZM55,75L55,185C55,193.262 61.738,200 70,200L180,200C188.262,200 195,193.262 195,185L195,75L55,75ZM210,75C208.242,75 206.563,75.371 205,75.938L205,174.063C206.563,174.609 208.242,175 210,175C218.281,175 225,168.281 225,160L225,90C225,81.719 218.281,75 210,75ZM75,210L75,230C75,241.035 83.965,250 95,250C106.035,250 115,241.035 115,230L115,210L75,210ZM135,210L135,230C135,241.035 143.965,250 155,250C166.035,250 175,241.035 175,230L175,210L135,210Z" style="fill-rule:nonzero;"/>
</svg>
