<?xml version="1.0" encoding="UTF-8" standalone="no"?>
<!DOCTYPE svg PUBLIC "-//W3C//DTD SVG 1.1//EN" "http://www.w3.org/Graphics/SVG/1.1/DTD/svg11.dtd">
<svg width="100%" height="100%" viewBox="0 0 2038 2500" version="1.1" xmlns="http://www.w3.org/2000/svg" xmlns:xlink="http://www.w3.org/1999/xlink" xml:space="preserve" xmlns:serif="http://www.serif.com/" style="fill-rule:evenodd;clip-rule:evenodd;stroke-linejoin:round;stroke-miterlimit:2;">
    <path d="M1124.47,217.598C1288.73,1.106 1517.08,0.05 1517.08,0.05C1517.08,0.05 1551.05,203.589 1387.87,399.663C1213.63,609.025 1015.59,574.767 1015.59,574.767C1015.59,574.767 978.407,410.11 1124.47,217.598ZM1036.49,717.345C1120.99,717.345 1277.81,601.189 1481.95,601.189C1833.33,601.189 1971.57,851.221 1971.57,851.221C1971.57,851.221 1701.2,989.451 1701.2,1324.86C1701.2,1703.23 2038,1833.62 2038,1833.62C2038,1833.62 1802.57,2496.28 1484.57,2496.28C1338.51,2496.28 1224.96,2397.85 1071.06,2397.85C914.235,2397.85 758.605,2499.95 657.242,2499.95C366.857,2499.96 0,1871.36 0,1366.07C0,868.942 310.52,608.155 601.776,608.155C791.118,608.155 938.05,717.345 1036.49,717.345Z" style="fill-rule:nonzero;"/>
</svg>
