<?xml version="1.0" ?><!DOCTYPE svg  PUBLIC '-//W3C//DTD SVG 1.1//EN'  'http://www.w3.org/Graphics/SVG/1.1/DTD/svg11.dtd'><svg height="512px" id="形状_1_1_" style="enable-background:new 0 0 512 512;" version="1.1" viewBox="0 0 512 512" width="512px" xml:space="preserve" xmlns="http://www.w3.org/2000/svg" xmlns:xlink="http://www.w3.org/1999/xlink"><g id="形状_1"><g><path d="M301.785,154.109c1.261,6.188,0.835,12.522,0.912,18.799    c0.053,34.661-0.107,69.336,0.084,104.003c10.424,4.854,21.692,8.559,33.311,8.436c7.659,0.155,15.394-1.576,22.144-5.219    c7.044-3.773,12.844-9.639,17.016-16.412c4.725-7.68,7.566-16.387,9.164-25.22c1.923-10.166,1.943-20.551,1.615-30.852    c-0.694-15.783-3.054-31.829-9.931-46.199c-3.778-7.928-8.924-15.218-15.209-21.359c-5.803-5.914-12.589-10.764-19.656-15.055    c-15.78-9.37-33.125-15.65-50.545-21.2c-11.091-3.58-22.252-6.943-33.448-10.197c-19.564-5.549-39.224-10.875-59.226-14.604    c-0.014,110.393-0.025,220.773,0.002,331.166c24.963,7.935,49.93,15.852,74.9,23.773c0.059-92.809,0-185.62,0.026-278.434    c0.153-5.264,1.04-10.872,4.423-15.1c2.033-2.642,5.543-4.038,8.831-3.411c3.252,0.684,6.485,1.955,8.979,4.207    C298.941,144.483,300.897,149.313,301.785,154.109z M106.18,350.391c25.712-9.185,51.399-18.468,77.139-27.588    c0.216-1.724,0.107-3.469,0.128-5.201c-0.021-12.793,0.029-25.578-0.021-38.353c-32.565,11.485-65.085,23.116-97.634,34.643    c-7.935,2.895-16.002,5.479-23.777,8.792c-9.024,3.797-17.93,8.049-26.006,13.623c-3.486,2.375-6.656,5.424-8.47,9.293    c-1.878,3.879-1.99,8.514-0.479,12.529c1.8,4.745,5.346,8.601,9.307,11.663c7.194,5.479,15.758,8.797,24.375,11.294    c26.275,8.646,54,12.926,81.66,12.302c13.739-0.219,27.413-1.864,40.929-4.289c0.212-2.155,0.082-4.33,0.116-6.49    c-0.021-10.824,0.045-21.64-0.035-32.45c-11.007,3.938-21.993,7.939-32.979,11.918c-4.229,1.586-8.498,3.081-12.933,3.951    c-6.561,1.449-13.292,1.946-19.99,2.056c-6.009-0.273-12.173-0.602-17.816-2.894c-2.026-0.889-4.227-2.061-5.109-4.216    c-0.7-1.828,0.344-3.715,1.625-4.991C98.958,353.262,102.616,351.734,106.18,350.391z M478.627,325.546    c-6.515-5.848-14.664-9.457-22.8-12.429c-4.566-1.449-9.004-3.259-13.587-4.648c-23.355-7.329-47.896-10.364-72.31-10.456    c-7.422,0.27-14.852,0.47-22.235,1.321c-20.573,2.366-41.006,6.527-60.576,13.396c-0.014,15-0.004,29.999-0.007,45.003    c27.05-9.443,54.038-19.033,81.077-28.509c8.999-3.035,18.548-4.202,28.007-4.261c6.044,0.164,12.23,0.597,17.912,2.849    c2.005,0.87,4.182,2.032,5.096,4.134c0.872,2.397-0.871,4.63-2.655,6.025c-4.355,3.482-9.883,4.877-15.016,6.79    c-37.956,13.546-75.908,27.087-113.869,40.597c-0.789,0.146-0.483,1.121-0.559,1.681c0.022,13.966,0,27.939,0.007,41.913    c49.886-17.935,99.782-35.847,149.673-53.763c8.177-3.021,16.557-5.588,24.353-9.563c7.323-3.71,14.613-7.957,20.133-14.146    c2.903-3.296,4.925-7.589,4.692-12.056C485.917,333.932,482.542,329.119,478.627,325.546z" style="fill-rule:evenodd;clip-rule:evenodd;fill:#1B1B1B;"/></g></g></svg>