<?xml version="1.0" encoding="UTF-8" standalone="no"?>
<!DOCTYPE svg PUBLIC "-//W3C//DTD SVG 1.1//EN" "http://www.w3.org/Graphics/SVG/1.1/DTD/svg11.dtd">
<svg width="100%" height="100%" viewBox="0 0 512 512" version="1.1" xmlns="http://www.w3.org/2000/svg" xmlns:xlink="http://www.w3.org/1999/xlink" xml:space="preserve" xmlns:serif="http://www.serif.com/" style="fill-rule:evenodd;clip-rule:evenodd;stroke-linejoin:round;stroke-miterlimit:2;">
    <path id="形状_1" d="M301.785,154.109C303.046,160.297 302.62,166.631 302.697,172.908C302.75,207.569 302.59,242.244 302.781,276.911C313.205,281.765 324.473,285.47 336.092,285.347C343.751,285.502 351.486,283.771 358.236,280.128C365.28,276.355 371.08,270.489 375.252,263.716C379.977,256.036 382.818,247.329 384.416,238.496C386.339,228.33 386.359,217.945 386.031,207.644C385.337,191.861 382.977,175.815 376.1,161.445C372.322,153.517 367.176,146.227 360.891,140.086C355.088,134.172 348.302,129.322 341.235,125.031C325.455,115.661 308.11,109.381 290.69,103.831C279.599,100.251 268.438,96.888 257.242,93.634C237.678,88.085 218.018,82.759 198.016,79.03C198.002,189.423 197.991,299.803 198.018,410.196C222.981,418.131 247.948,426.048 272.918,433.969C272.977,341.16 272.918,248.349 272.944,155.535C273.097,150.271 273.984,144.663 277.367,140.435C279.4,137.793 282.91,136.397 286.198,137.024C289.45,137.708 292.683,138.979 295.177,141.231C298.941,144.483 300.897,149.313 301.785,154.109ZM106.18,350.391C131.892,341.206 157.579,331.923 183.319,322.803C183.535,321.079 183.426,319.334 183.447,317.602C183.426,304.809 183.476,292.024 183.426,279.249C150.861,290.734 118.341,302.365 85.792,313.892C77.857,316.787 69.79,319.371 62.015,322.684C52.991,326.481 44.085,330.733 36.009,336.307C32.523,338.682 29.353,341.731 27.539,345.6C25.661,349.479 25.549,354.114 27.06,358.129C28.86,362.874 32.406,366.73 36.367,369.792C43.561,375.271 52.125,378.589 60.742,381.086C87.017,389.732 114.742,394.012 142.402,393.388C156.141,393.169 169.815,391.524 183.331,389.099C183.543,386.944 183.413,384.769 183.447,382.609C183.426,371.785 183.492,360.969 183.412,350.159C172.405,354.097 161.419,358.098 150.433,362.077C146.204,363.663 141.935,365.158 137.5,366.028C130.939,367.477 124.208,367.974 117.51,368.084C111.501,367.811 105.337,367.482 99.694,365.19C97.668,364.301 95.467,363.129 94.585,360.974C93.885,359.146 94.929,357.259 96.21,355.983C98.958,353.262 102.616,351.734 106.18,350.391ZM478.627,325.546C472.112,319.698 463.963,316.089 455.827,313.117C451.261,311.668 446.823,309.858 442.24,308.469C418.885,301.14 394.344,298.105 369.93,298.013C362.508,298.283 355.078,298.483 347.695,299.334C327.122,301.7 306.689,305.861 287.119,312.73C287.105,327.73 287.115,342.729 287.112,357.733C314.162,348.29 341.15,338.7 368.189,329.224C377.188,326.189 386.737,325.022 396.196,324.963C402.24,325.127 408.426,325.56 414.108,327.812C416.113,328.682 418.29,329.844 419.204,331.946C420.076,334.343 418.333,336.576 416.549,337.971C412.194,341.453 406.666,342.848 401.533,344.761C363.577,358.307 325.625,371.848 287.664,385.358C286.875,385.504 287.181,386.479 287.105,387.039C287.127,401.005 287.105,414.978 287.112,428.952C336.998,411.017 386.894,393.105 436.785,375.189C444.962,372.168 453.342,369.601 461.138,365.626C468.461,361.916 475.751,357.669 481.271,351.48C484.174,348.184 486.196,343.891 485.963,339.424C485.917,333.932 482.542,329.119 478.627,325.546Z" style="fill:white;"/>
</svg>
