<?xml version="1.0" encoding="UTF-8" standalone="no"?>
<!DOCTYPE svg PUBLIC "-//W3C//DTD SVG 1.1//EN" "http://www.w3.org/Graphics/SVG/1.1/DTD/svg11.dtd">
<svg width="100%" height="100%" viewBox="0 0 144 144" version="1.1" xmlns="http://www.w3.org/2000/svg" xmlns:xlink="http://www.w3.org/1999/xlink" xml:space="preserve" xmlns:serif="http://www.serif.com/" style="fill-rule:evenodd;clip-rule:evenodd;stroke-linejoin:round;stroke-miterlimit:2;">
    <path d="M72,12C62.25,12 50.25,15.023 41.25,20.438C40.898,20.648 40.242,21.211 39.563,21.75C49.406,16.125 71.508,33.727 72,34.125C72.492,33.727 94.594,16.148 104.438,21.75C103.758,21.211 103.102,20.648 102.75,20.438C93.75,15.023 83.273,12 72,12ZM34.125,27.563C32.109,27.891 29.883,29.227 27.938,31.313C18.023,42.023 12,56.273 12,72C12,87.539 17.859,101.648 27.563,112.313C24.375,96.914 27.328,86.109 36,72C44.695,57.891 60,42 60,42C47.391,30.094 38.461,27.984 36.188,27.563C35.578,27.445 34.805,27.445 34.125,27.563ZM27.563,112.313C38.531,124.383 54.469,132 72,132C89.578,132 105.469,124.359 116.438,112.313C116.414,112.148 115.148,104.367 107.063,93.188C100.758,84.469 82.008,63.492 72,54C61.992,63.492 43.242,84.281 36.938,93C28.852,104.156 27.586,112.125 27.563,112.313ZM116.438,112.313C126.117,101.648 132,87.539 132,72C132,56.273 125.977,42.023 116.063,31.313C113.484,28.523 110.203,27.117 107.813,27.563C105.539,27.984 96.609,30.094 84,42C84,42 99.305,57.891 108,72C116.672,86.109 119.625,96.914 116.438,112.313Z" style="fill:white;fill-rule:nonzero;"/>
</svg>
