<svg fill="#000000" xmlns="http://www.w3.org/2000/svg" viewBox="0 0 24 24" width="144px" height="144px"><path d="M 12 2 C 10.375 2 8.375 2.503906 6.875 3.40625 C 6.816406 3.441406 6.707031 3.535156 6.59375 3.625 C 8.234375 2.6875 11.917969 5.621094 12 5.6875 C 12.082031 5.621094 15.765625 2.691406 17.40625 3.625 C 17.292969 3.535156 17.183594 3.441406 17.125 3.40625 C 15.625 2.503906 13.878906 2 12 2 Z M 5.6875 4.59375 C 5.351563 4.648438 4.980469 4.871094 4.65625 5.21875 C 3.003906 7.003906 2 9.378906 2 12 C 2 14.589844 2.976563 16.941406 4.59375 18.71875 C 4.0625 16.152344 4.554688 14.351563 6 12 C 7.449219 9.648438 10 7 10 7 C 7.898438 5.015625 6.410156 4.664063 6.03125 4.59375 C 5.929688 4.574219 5.800781 4.574219 5.6875 4.59375 Z M 4.59375 18.71875 C 6.421875 20.730469 9.078125 22 12 22 C 14.929688 22 17.578125 20.726563 19.40625 18.71875 C 19.402344 18.691406 19.191406 17.394531 17.84375 15.53125 C 16.792969 14.078125 13.667969 10.582031 12 9 C 10.332031 10.582031 7.207031 14.046875 6.15625 15.5 C 4.808594 17.359375 4.597656 18.6875 4.59375 18.71875 Z M 19.40625 18.71875 C 21.019531 16.941406 22 14.589844 22 12 C 22 9.378906 20.996094 7.003906 19.34375 5.21875 C 18.914063 4.753906 18.367188 4.519531 17.96875 4.59375 C 17.589844 4.664063 16.101563 5.015625 14 7 C 14 7 16.550781 9.648438 18 12 C 19.445313 14.351563 19.9375 16.152344 19.40625 18.71875 Z"/></svg>