<svg width="21" height="20" viewBox="0 0 21 20" fill="none" xmlns="http://www.w3.org/2000/svg">
<path d="M19.255 20C19.8761 20 20.3797 19.5058 20.3797 18.8962V1.10382C20.3797 0.494139 19.8761 0 19.255 0H1.12479C0.503443 0 0 0.494139 0 1.10382V18.8962C0 19.5058 0.503443 20 1.12479 20H19.255Z" fill="#395185"/>
<path d="M14.0615 20V12.255H16.7107L17.1073 9.23661H14.0615V7.30943C14.0615 6.43553 14.3089 5.83998 15.5859 5.83998L17.2146 5.83928V3.13968C16.9328 3.10289 15.966 3.0207 14.8413 3.0207C12.493 3.0207 10.8854 4.42733 10.8854 7.0106V9.23661H8.22949V12.255H10.8854V20H14.0615Z" fill="white"/>
</svg>
