<svg width="21" height="20" viewBox="0 0 21 20" fill="none" xmlns="http://www.w3.org/2000/svg">
<g clip-path="url(#clip0)">
<path d="M19.8196 10.1871C19.8196 9.36771 19.7515 8.76977 19.6043 8.1497H10.0283V11.848H15.6492C15.5359 12.7671 14.9239 14.1512 13.564 15.0813L13.545 15.2051L16.5727 17.497L16.7825 17.5174C18.7089 15.7789 19.8196 13.2211 19.8196 10.1871Z" fill="#4285F4"/>
<path d="M10.0283 19.9313C12.7821 19.9313 15.0939 19.0454 16.7825 17.5174L13.564 15.0813C12.7028 15.6682 11.5468 16.0779 10.0283 16.0779C7.33121 16.0779 5.04207 14.3395 4.22605 11.9366L4.10644 11.9466L0.958164 14.3273L0.916992 14.4391C2.59418 17.6945 6.03926 19.9313 10.0283 19.9313Z" fill="#34A853"/>
<path d="M4.22605 11.9366C4.01074 11.3166 3.88613 10.6521 3.88613 9.96565C3.88613 9.27908 4.01074 8.61473 4.21473 7.99465L4.20902 7.86259L1.02129 5.44366L0.916992 5.49213C0.225742 6.84305 -0.170898 8.36007 -0.170898 9.96565C-0.170898 11.5712 0.225742 13.0882 0.916992 14.4391L4.22605 11.9366Z" fill="#FBBC05"/>
<path d="M10.0283 3.85336C11.9435 3.85336 13.2354 4.66168 13.972 5.33718L16.8504 2.59107C15.0826 0.985496 12.7821 0 10.0283 0C6.03926 0 2.59418 2.23672 0.916992 5.49214L4.21473 7.99466C5.04207 5.59183 7.33121 3.85336 10.0283 3.85336Z" fill="#EB4335"/>
</g>
<defs>
<clipPath id="clip0">
<rect width="20.3797" height="20" fill="white"/>
</clipPath>
</defs>
</svg>
